<svg width="800" height="600" viewBox="0 0 800 600" fill="none" xmlns="http://www.w3.org/2000/svg">
  <defs>
    <linearGradient id="coatingGrad" x1="0%" y1="0%" x2="100%" y2="100%">
      <stop offset="0%" style="stop-color:#0066CC;stop-opacity:0.1" />
      <stop offset="100%" style="stop-color:#004C99;stop-opacity:0.05" />
    </linearGradient>
  </defs>
  <rect width="800" height="600" fill="url(#coatingGrad)"/>

  <!-- Shield/protection illustration -->
  <path d="M 400 150 C 400 150, 300 180, 280 250 C 260 320, 280 450, 400 500 C 520 450, 540 320, 520 250 C 500 180, 400 150, 400 150 Z" fill="#0066CC" opacity="0.2"/>
  <path d="M 400 180 C 400 180, 320 205, 305 265 C 290 325, 305 430, 400 475 C 495 430, 510 325, 495 265 C 480 205, 400 180, 400 180 Z" fill="#0066CC" opacity="0.25"/>
  <circle cx="400" cy="320" r="60" fill="#FF6B35" opacity="0.4"/>
  <path d="M 370 320 L 390 340 L 430 300" stroke="white" stroke-width="6" stroke-linecap="round" stroke-linejoin="round" opacity="0.8"/>

  <text x="400" y="560" font-family="Inter, Arial, sans-serif" font-size="32" font-weight="700" fill="#1A2B3C" text-anchor="middle">
    Protective Coatings
  </text>
</svg>
